# xmcd CD database file
#
# Track frame offsets:
#	150
#	20358
#	49096
#	65427
#	92387
#	113959
#	130953
#	153286
#	175432
#	206620
#	228066
#	243624
#
# Disc length: 3449 seconds
#
# Revision: 2
# Processed by: cddbd v1.5.2PL0 Copyright (c) Steve Scherf et al.
# Submitted via: CDex 1.51
#
DISCID=990d770c
DTITLE=Various Artist - Lauschangriff 23
DYEAR=2013
DGENRE=Metal
TTITLE0=TRIVIUM - Strife
TTITLE1=HAIL OF BULLETS - DG - 7
TTITLE2=DEATH ANGEL - Caster Of Shame
TTITLE3=AVATARIUM - Moonhorse (Edit)
TTITLE4=ZODIAC - Downtown
TTITLE5=´77 - Down And Dirty
TTITLE6=FATES WARNING - Firefly
TTITLE7=PARADISE LOST - Loneliness Remains
TTITLE8=SAMSARA BLUES EXPERIMENT - Waiting For The Flood (Edit)
TTITLE9=AYREON - The Theory Of Everything (Edit)
TTITLE10=BLACK SPIDERS - Knock You Out
TTITLE11=HATESPHERE - Murderlust
EXTD=YEAR: 2013
EXTT0=
EXTT1=
EXTT2=
EXTT3=
EXTT4=
EXTT5=
EXTT6=
EXTT7=
EXTT8=
EXTT9=
EXTT10=
EXTT11=
PLAYORDER=
